<?xml version="1.0" encoding="UTF-8"?> <svg xmlns="http://www.w3.org/2000/svg" width="120" height="120"><path d="M70.086 60.805l-10.142.022-.324-12.473-4.737 12.473h-7.05L58.928 31h7.14l-3.41 8.948L70.045 31h21.512l-1.895 4.971h-7.14l-2.324 6.282h6.779L84.89 47.81h-6.779l-2.702 7.231h8.225l-.831 2.317c16.745-4.537 31.262-8.47 31.416-8.508.904-.226 1.04.226.316.587 0 0-74.928 32.538-81.706 35.25-6.78 2.711-16.721 6.779-24.675-.09-8.209-7.09 1.084-22.483 10.936-34.053-8.496 16.992 3.254 23.297 13.558 20.405l37.437-10.145zm-31.472.022H31.02l.863-13.197-4.93 13.197h-7.05L31.09 31h7.502l-.866 13.377L42.75 31h7.05L38.613 60.827zm.915 0L50.715 31h7.05L46.579 60.827h-7.05zm27.41-1.989L77.145 31.59l-10.66 11.703.452 15.546z" fill="#252628" fill-rule="nonzero"></path></svg> 