<?xml version="1.0" encoding="UTF-8"?> <svg xmlns="http://www.w3.org/2000/svg" width="120" height="120"><path d="M52.71 20.051c0-2.43-2.293-3.135-4.207-3.043v.378c1.15.028 2.03.41 2.03 1.171 0 .526-.38 1.199-1.53 1.199-.912 0-2.677-.526-4.09-.996-1.557-.526-3.03-1.024-4.263-1.024-2.414 0-4.24 1.79-4.24 3.984 0 1.784 1.354 2.43 1.914 2.665l.176-.295c-.352-.23-.704-.498-.704-1.199 0-.53.468-1.378 1.705-1.378 1.117 0 2.59.498 4.531 1.055 1.677.466 3.53.909 4.531 1.024v3.804l-1.885 1.554v.147l1.885 1.642v5.238c-.972.558-2.09.705-3.057.705-1.798 0-3.503-.47-4.86-1.964l5.063-2.43v-8.4l-6.208 2.752c.649-1.642 1.941-2.72 3.266-3.514l-.092-.295c-3.67.996-7.029 4.362-7.029 8.521 0 4.98 4.059 8.668 8.678 8.668 5.004 0 8.182-3.896 8.122-8.022l-.296-.028c-.733 1.581-1.793 3.075-3.174 3.864v-5.095l1.997-1.582-.028-.175-1.97-1.581v-3.809c1.826 0 3.735-1.231 3.735-3.546v.005zM41.97 33.667l-1.5.728c-.853-1.106-1.41-2.605-1.41-4.684 0-.849.089-1.905.353-2.633l2.59-1.144-.032 7.733zm13.094 2.72l-1.65 1.231.209.23.792-.553 2.766 2.518 3.707-2.458-.176-.267-.973.618-1.205-1.2v-8.441l1-.729 2.118 1.697v7.47c0 4.656-1.028 5.412-3.146 6.178v.323c3.503.142 6.649-1.029 6.649-7v-8.022l1.116-.881-.204-.263-.972.76-3.03-2.604-3.531 2.633V17.506h-.264l-4.383 2.928v.267c.44.263 1.177.438 1.177 1.904v13.782zm22.596-1.314l-3.03 2.342-3.151-2.462v-1.466l5.856-3.892v-.175l-2.914-4.454-6.384 3.398v8.083l-1.265.968.208.258 1.145-.903 4.179 3.015 5.592-4.394-.236-.318zm-6.181-2.029v-6.026l.208-.148 2.706 4.247-2.914 1.927zm-47.03 17.102a3.434 3.434 0 0 0-.23-1.143h-.297c-.385 1.028-.857 1.581-2.062 1.581-1.061 0-1.881-.645-2.326-1.11 0 .027-3.53 4.066-3.53 4.066l.296.267 1.001-1.143c.764.586 1.32 1.143 3.03 1.171V64.08l-7.237-12.467c-.556-.936-1.501-2.343-3.238-2.343-1.942 0-3.735 1.67-3.498 4.482h.352c.088-.76.468-1.581 1.325-1.581.676 0 1.292.645 1.617 1.226v4.011c-2.238 0-3.707 1.029-3.707 2.84 0 .941.468 2.518 2.03 2.813l.027-.263c-.208-.207-.417-.438-.417-.848 0-.673.505-1.116 1.413-1.116.149 0 .561.028.649.06v5.21C7.029 66.132 5 67.571 5 70.028c0 2.343 2.03 3.458 4.147 3.338l.027-.29c-1.325-.148-2.029-.76-2.029-1.614 0-1.051.765-1.604 1.738-1.604 1 0 1.88.613 2.501 1.314l3.559-3.952-.297-.263-.913 1.024c-1.352-1.199-2.117-1.641-3.674-1.872v-12.33l9.97 17.305h.71V53.84c1.913-.12 3.706-1.554 3.706-3.689l.005-.005zm8.915 16.134l-3.03 2.342-3.15-2.462v-1.462l5.856-3.896v-.175l-2.914-4.45-6.385 3.399v8.078l-1.265.968.209.263 1.149-.909 4.174 3.016 5.592-4.39-.236-.322zm-6.18-2.025V58.23l.208-.147 2.706 4.246-2.915 1.927zm26.418-6.731l-.908.673-2.354-1.992-2.734 2.462 1.112 1.051v9.287L45.721 67.1v-7.548l.973-.673-2.887-2.665-2.678 2.462 1.117 1.052v8.81l-.38.236-2.618-1.844v-7.41c0-1.701-.825-2.2-1.913-2.872-.913-.554-1.325-1.024-1.325-1.872 0-.701.708-1.112 1.06-1.319-.027-.028-.027-.29-.027-.29-.94-.028-3.563.995-3.619 3.365-.027 1.231.556 1.753 1.177 2.343.616.585 1.177 1.143 1.177 2.167v7.114l-1.325 1.024.208.267 1.205-.94 3.266 2.55 3.086-2.08 3.415 2.075 6.56-3.804v-8.249l1.622-1.176-.209-.29-.004-.01zm22.92-6.76l-1.237 1.111-2.762-2.397-4.03 2.983v-2.813h-.417l.092 19.942c-.417-.06-1.44-.29-2.386-.438l-.088-16.654a2.912 2.912 0 0 0-.909-2.126 2.941 2.941 0 0 0-2.177-.802c-2.27 0-3.738 1.725-3.738 3.454h.352c.12-.734.5-1.379 1.237-1.379.764 0 1.413.47 1.413 2.112v4.8c-2.27.092-3.563 1.346-3.563 2.9 0 .968.445 2.457 2.034 2.517l.055-.295c-.528-.23-.648-.553-.648-.848 0-.701.68-.992 1.621-.992h.44v7.608c-1.792.618-2.617 1.937-2.617 3.43 0 2.048 1.65 3.597 4.058 3.597 1.71 0 3.179-.29 4.74-.645 1.265-.259 2.794-.554 3.53-.554.941 0 1.353.438 1.353 1.116 0 .844-.384 1.171-.88 1.314l.056.295c2.03-.382 3.206-1.581 3.206-3.398 0-1.872-1.793-2.988-3.8-2.988-1.023 0-3.057.323-4.586.678-1.705.378-3.442.553-3.97.553-.853 0-1.914-.41-1.914-1.549 0-1.028.852-1.844 2.974-1.844 1.145 0 2.442.175 3.85.493 1.502.323 2.827.738 4.124.738 1.793 0 3.41-.646 3.41-3.255V52.254l1.44-1.227-.263-.263zm-5.06 7.585a2.075 2.075 0 0 1-1.473.7c-.676 0-1.177-.41-1.496-.7v-5.482l1.264-.849 1.705 1.554v4.777zm0 3.656a2.15 2.15 0 0 0-1.473-.613 2.448 2.448 0 0 0-1.496.613v-3.218c.264.23.852.646 1.496.646.649 0 1.177-.355 1.473-.646v3.218zm0 5.74c0 .997-.676 1.96-1.973 1.96a11.359 11.359 0 0 1-.996-.055v-7.202c.398-.4.93-.642 1.496-.678.62 0 1.121.355 1.473.678v5.298zm16.888-8.727l-4.003-2.84-6 3.43v8.023l-1.237.996.176.258.973-.784 3.97 2.895 6.117-3.72.004-8.258zm-6.56 7.76v-8.784l3.118 2.227v8.784l-3.118-2.227zm18.352-10.269c0 .028-.232 0-.232 0a1.764 1.764 0 0 1-1.094.494 1.954 1.954 0 0 1-1.38-.669h-.232l-2.094 2.282-2.145-2.282-3.651 2.513.176.295.973-.645 1.265 1.346v7.76l-1.65 1.231.209.23.792-.553 2.975 2.518 3.854-2.55-.176-.263-1.088.646-1.446-1.291V58.93c.62.673 1.357 1.259 2.21 1.259 1.645 0 2.557-1.812 2.734-3.689v.01zM115 68.31l-4.207 2.752-5.708-8.58 4.03-6.234.265-.028c.473.466 1.297.968 2.062.968a2.166 2.166 0 0 0 1.793-.968s.231.028.231 0c-.139 2.49-1.82 3.891-3.085 3.891-1.298 0-1.914-.585-2.59-.996l-.38.558 6.176 9.107 1.237-.761.176.29zm-13.594-.706l-1.644 1.231.203.23.793-.553 2.766 2.518 3.706-2.458-.204-.267-.94.618-1.205-1.2V48.718h-.268l-4.471 2.951v.267c.44.263 1.264.383 1.264 1.872v13.796zM42.903 83.487c0-2.43-2.298-3.136-4.207-3.044v.378c1.145.028 2.03.41 2.03 1.172 0 .525-.385 1.198-1.53 1.198-.912 0-2.677-.525-4.09-.995-1.562-.526-3.03-1.024-4.263-1.024-2.418 0-4.24 1.789-4.24 3.984 0 1.784 1.354 2.43 1.91 2.665l.18-.295c-.356-.23-.708-.494-.708-1.2 0-.525.472-1.378 1.705-1.378 1.12 0 2.594.498 4.53 1.056 1.678.47 3.531.908 4.532 1.028v3.804l-1.881 1.554v.143l1.881 1.641v5.243c-.973.553-2.085.7-3.058.7-1.793 0-3.502-.47-4.855-1.959l5.059-2.43v-8.41l-6.208 2.753c.648-1.642 1.946-2.72 3.266-3.514l-.088-.295c-3.674.996-7.029 4.362-7.029 8.521 0 4.98 4.06 8.668 8.678 8.668 5.004 0 8.178-3.896 8.122-8.022l-.296-.028c-.737 1.581-1.793 3.075-3.179 3.864V94.17l2.002-1.582-.028-.175-1.969-1.581v-3.809c1.82 0 3.734-1.231 3.734-3.546v.01zm-10.74 13.615l-1.5.729c-.853-1.107-1.414-2.605-1.414-4.685 0-.848.093-1.904.353-2.633l2.594-1.143-.032 7.732zm14.98-14.764l-.176-.027-2.47 2.075v.18l2.085 2.342h.209l2.469-2.052-.023-.138-2.085-2.375-.01-.005zm3.766 18.185l-.94.614-1.205-1.2v-8.492l1.172-.876-.231-.295-.913.7-2.15-2.545-3.53 2.462.208.323.88-.59 1.09 1.346v7.963l-1.59 1.2.176.234.825-.585 2.706 2.462 3.706-2.462-.204-.259zm20.595-.147l-.88.585-1.326-1.198v-8.346l1.265-.936-.208-.267-1.09.82-2.825-2.605-3.647 2.578L60 88.425l-3.591 2.55-2.205-2.546-3.53 2.458.175.323.88-.586 1.205 1.319v7.963l-.968.968 2.826 2.37 2.734-2.462-1.112-1.052v-8.313l1.056-.705 1.913 1.756v7.438l-.945.968 2.854 2.37 2.678-2.458-1.116-1.056v-8.373l.94-.613 2.03 1.724v7.327l-.825.848 2.886 2.605 3.795-2.577-.176-.295zm10.74-1.877l-3.03 2.347-3.151-2.462v-1.462l5.856-3.896v-.175l-2.914-4.45L72.62 91.8v8.345l4.263 3.071 5.592-4.394-.232-.323zm-6.181-2.02v-6.03l.208-.148 2.706 4.247-2.914 1.932zm17.476-1.143l-2.382-1.789c1.59-1.374 2.206-3.223 2.206-4.477a8.95 8.95 0 0 0-.06-.793h-.292c-.237.646-.71 1.199-1.677 1.199-.941 0-1.622-.526-2.21-1.171l-5.56 3.02v4.477l2.062 1.614c-2.09 1.844-2.475 3.13-2.475 4.067 0 1.23.561 2.111 1.622 2.517l.144-.263c-.264-.23-.5-.383-.5-.936 0-.415.5-.996 1.445-.996 1.204 0 1.941.816 2.321 1.259 0-.028 5.356-3.19 5.356-3.19v-4.538zm-1.325-3.688c-.825 1.461-2.734 2.895-3.795 3.716l-1.353-1.056v-4.362c.529 1.171 1.826 2.167 3.234 2.167a3.702 3.702 0 0 0 1.914-.47v.005zm-2.178 9.775c-.616-1.374-2.057-2.37-3.53-2.37-.352 0-1.38 0-2.321.585.556-.936 2.205-2.693 4.322-3.951l1.53 1.17v4.566z" fill="#252628" fill-rule="nonzero"></path></svg> 