<?xml version="1.0" encoding="UTF-8"?> <svg xmlns="http://www.w3.org/2000/svg" width="120" height="120"><path d="M73.53 69.774C67.168 74.486 57.944 77 50.002 77c-11.135 0-21.16-4.137-28.744-11.018-.596-.541-.062-1.279.653-.857 8.185 4.783 18.305 7.661 28.759 7.661 7.05 0 14.806-1.465 21.937-4.506 1.077-.46 1.978.709.925 1.494zm2.503-2.831c-.818-1.066-5.43-.504-7.5-.254-.63.078-.726-.48-.158-.88 3.673-2.624 9.699-1.867 10.401-.987.703.884-.182 7.018-3.634 9.945-.529.45-1.034.21-.799-.386.775-1.965 2.513-6.368 1.69-7.438zm-6.417-18.859v-2.461c0-.373.278-.623.611-.623h10.824c.347 0 .625.255.625.623v2.108c-.005.353-.297.815-.815 1.546l-5.609 8.154c2.084-.051 4.284.265 6.174 1.35.426.244.542.603.574.957v2.626c0 .359-.389.779-.797.562-3.33-1.778-7.752-1.972-11.434.018-.375.208-.769-.207-.769-.565v-2.495c0-.401.005-1.085.398-1.693l6.498-9.489h-5.655a.604.604 0 0 1-.625-.618zM28.025 63H24.61a.643.643 0 0 1-.61-.578V44.993c0-.348.293-.625.658-.625h3.184a.642.642 0 0 1 .62.582v2.279h.062C29.355 45.027 30.916 44 33.02 44c2.137 0 3.472 1.027 4.433 3.229.826-2.202 2.704-3.229 4.716-3.229 1.431 0 2.997.587 3.953 1.906 1.08 1.466.86 3.596.86 5.464l-.005 11c0 .348-.293.63-.658.63h-3.41c-.341-.024-.615-.296-.615-.63v-9.238c0-.735.067-2.57-.096-3.267-.255-1.17-1.018-1.5-2.008-1.5-.826 0-1.69.55-2.041 1.429-.35.878-.317 2.35-.317 3.338v9.238c0 .348-.293.63-.658.63h-3.41a.644.644 0 0 1-.615-.63l-.004-9.238c0-1.944.321-4.805-2.104-4.805-2.454 0-2.358 2.79-2.358 4.805v9.238c0 .348-.293.63-.658.63zM90.44 45c4.905 0 7.56 4.246 7.56 9.645C98 59.862 95.066 64 90.44 64 85.622 64 83 59.754 83 54.463 83 49.138 85.655 45 90.44 45zm.029 3C88.146 48 88 51.35 88 53.44c0 2.092-.031 6.56 2.442 6.56C92.885 60 93 56.396 93 54.2c0-1.446-.058-3.173-.47-4.543C92.176 48.465 91.47 48 90.47 48zm14.543 15h-3.394a.647.647 0 0 1-.613-.63L101 44.936c.029-.32.312-.568.657-.568h3.158a.652.652 0 0 1 .609.487v2.665h.062c.954-2.383 2.291-3.52 4.644-3.52 1.53 0 3.02.55 3.979 2.054.891 1.394.891 3.74.891 5.426v10.97c-.038.306-.321.55-.657.55h-3.417c-.311-.024-.57-.253-.604-.55v-9.466c0-1.906.22-4.695-2.133-4.695-.829 0-1.59.554-1.97 1.395-.479 1.065-.541 2.125-.541 3.3v9.386a.654.654 0 0 1-.666.63zm-41.775-.28a.703.703 0 0 1-.791.079c-1.111-.917-1.309-1.342-1.92-2.217C58.688 62.444 57.39 63 55.007 63 52.194 63 50 61.274 50 57.819c0-2.699 1.473-4.536 3.568-5.434 1.817-.795 4.354-.936 6.294-1.155v-.43c0-.79.06-1.726-.405-2.409-.41-.613-1.191-.865-1.878-.865-1.276 0-2.415.65-2.693 1.997-.056.3-.278.594-.579.608l-3.248-.346c-.273-.061-.574-.28-.499-.697.749-3.91 4.303-5.088 7.485-5.088 1.628 0 3.756.43 5.041 1.655 1.629 1.51 1.473 3.526 1.473 5.72v5.181c0 1.557.65 2.24 1.262 3.082.216.299.263.66-.01.884a141.77 141.77 0 0 0-2.565 2.207l-.01-.01zM60 54.75V54c-2.432 0-5 .536-5 3.49 0 1.496.752 2.51 2.043 2.51.946 0 1.793-.6 2.328-1.574.662-1.2.629-2.325.629-3.675zm-40.763 7.97a.703.703 0 0 1-.791.079c-1.111-.917-1.309-1.342-1.92-2.217C14.688 62.444 13.39 63 11.007 63 8.194 63 6 61.274 6 57.819c0-2.699 1.473-4.536 3.568-5.434 1.817-.795 4.354-.936 6.294-1.155v-.43c0-.79.06-1.726-.405-2.409-.41-.613-1.191-.865-1.878-.865-1.276 0-2.415.65-2.693 1.997-.056.3-.278.594-.579.608l-3.248-.346c-.273-.061-.574-.28-.499-.697.75-3.91 4.303-5.088 7.485-5.088 1.628 0 3.756.43 5.041 1.655 1.629 1.51 1.473 3.526 1.473 5.72v5.181c0 1.557.65 2.24 1.262 3.082.216.299.263.66-.01.884a141.77 141.77 0 0 0-2.565 2.207l-.01-.01zM16 54.75V54c-2.432 0-5 .536-5 3.49 0 1.496.752 2.51 2.043 2.51.946 0 1.793-.6 2.328-1.574.662-1.2.629-2.325.629-3.675z" fill="#252628"></path></svg> 