<?xml version="1.0" encoding="UTF-8"?> <svg xmlns="http://www.w3.org/2000/svg" width="120" height="120"><path d="M97.54 54l.177.001c1.28.036 2.111.552 2.859 1.613.402.566.677 1.239.07 1.603-.933.555-3.954.597-4.508.602-.882.01-2.1-.005-2.1-.005l-.616 2.013s2.165-.023 3.38-.028c.296 0 .592.016.758.05.62.135.835.602.86 1.276.034.788-.118 1.15-.759 1.256-.331.052-4.049.073-4.553.13-.315.034-.647.083-.647.083s-.269.686-.502 1.38c-.236.722-.438 1.458-.438 1.458s.189.008.346.008c.261.002.527-.036.735-.07 1.134-.204 2.82-.448 4.204-.662.744-.116 1.118-.168 1.51.315.338.427.514.785.538 1.301.02.486-.358.808-.82 1.154-1.463 1.095-3.963 2.281-5.826 2.485-.86.094-1.07.001-1.824-.192-.144-.036-.665-.275-.66-.3 0 0-.283-.184-.378-.257a3.834 3.834 0 0 1-.432-.417c-.02-.02-.4-.575-.474-.747-.066-.147-.116-.254-.164-.377-.344-.871-.335-1.728-.144-2.664.176-.873.344-.91.801-2.11a.675.675 0 0 0 .053-.194c.02-.164-.252-1.269-.268-1.624-.02-.541.41-.925 1.129-1 .066-.005.115-.005.162-.018.287-.069.47-.606.628-1.037.218-.606.56-1.53.56-1.53s-.909-.205-1.395-.385c-.543-.2-.954-.46-1.2-.948-.294-.57-.1-.887.51-1.072.223-.07 1.986-.402 2.543-.479.695-.1 1.349-.185 2.01-.265.54-.064 2.891-.33 3.875-.346zM14.795 36.003c3.62-.042 7.072.636 10.6 1.734 2.154.665 4.977 1.784 7.041 2.802 1.48.73 3.815 2.076 5.127 2.955.413.28 2.834 2.099 3.21 2.418a39.174 39.174 0 0 1 2.552 2.354c1.438 1.458 3.226 3.69 4.096 5.462.207.427.37.845.638 1.336.093.168.492 1.177.557 1.47.065.287.161.711.175.726.02.157.202 1.02.188 1.357.086.795-.116 2.298-.149 2.497-.064.456-.401 1.51-.455 1.64-.273.638-.54 1.166-.825 1.688-.487.897-1.643 2.318-2.332 2.925-2.553 2.26-6.509 3.547-9.903 3.97-2.301.286-4.946.242-7.387-.219a62.413 62.413 0 0 1-2.087-.45s.003.51-.038.871c-.019.162-.14.595-.207.735-.179.375-.47.568-.892.65-.511.1-1.053.13-1.526-.075-.775-.336-1.054-1.08-1.188-1.932-.11-.686-.225-1.878-.225-1.878s-.579-.28-1.063-.527a27.217 27.217 0 0 1-4.131-2.591 49.826 49.826 0 0 1-2.136-1.834c-.91-.88-1.727-1.76-2.35-2.888-.484-.88-.623-1.664-.256-2.596.51-1.3 2.331-2.282 3.579-2.841.917-.414 3.764-1.365 4.948-1.54.558-.082 1.424-.24 1.477-.276a.253.253 0 0 0 .053-.05c.027-.04.073-1.33.064-1.8-.01-.463.335-3.504.446-4.147.06-.35.317-1.69.581-2.04.17-.237.475-.22.723-.062 1.357.861 1.768 3.856 1.869 5.38.06.928.09 2.324.09 2.324s1.557-.046 2.515-.02c.93.023 1.955.174 2.921.332 1.237.2 3.647.738 5.029 1.456 1.139.59 2.203 1.586 2.547 2.639.322.965.273 1.632-.215 2.503-.548.985-1.588 1.714-2.64 1.774-.315.022-1.494-.14-1.857-.427-.143-.116-.135-.323-.031-.463.038-.05.588-.346.915-.524.162-.09.298-.187.424-.306.272-.246.514-.514.487-.826-.038-.409-.458-.661-.861-.823-1.887-.766-5.655-1.404-7.477-1.515-.713-.042-1.726-.08-1.726-.08l.214 10.29s.839.164 1.498.274c.38.057 1.986.206 2.412.217 3.25.088 6.877-.209 9.859-1.652 1.308-.63 2.51-1.414 3.418-2.475 1.2-1.409 1.828-3.331 1.66-5.34-.182-2.198-1.692-4.8-2.896-6.387-3.186-4.194-8.645-7.64-13.447-9.66-4.905-2.062-9.75-3.251-14.957-3.45-1.34-.048-4.267.021-5.744.44-.214.06-.425.134-.622.176a1.744 1.744 0 0 0-.465.199c-.036.033-.075.073-.075.073s.092.051.179.091c.157.07.816.11 1.158.174.303.06.624.225.748.455.12.217.136.388-.009.568-.335.42-1.597.347-2.15.259-.578-.096-1.296-.275-1.428-.79-.152-.606.127-1.2.431-1.749.611-1.098 1.483-1.67 2.765-2.026 1.817-.511 4.112-.87 5.83-.937.242-.01.484-.015.726-.018zm6.97 21.436s-1.486.107-2.507.224c-1.3.142-3.743.574-5.15 1.092-.425.151-1.285.52-1.36.963-.075.464.202.823.515 1.197.18.216 1.198 1.218 1.482 1.462 1.197 1.02 3.623 2.599 5.413 3.365.61.26 1.627.632 1.627.632s-.076-2.959-.06-5.873c.005-1.54.04-3.062.04-3.062zm35.089-18.437c.532.006 1.05.081 1.52.246.487.171 1.168.593 1.51 1.033.072.093.133.195.208.242.065.043.24.06.379.086.48.084 1.17.451 1.45.696.563.496.875.97 1.018 1.658.288 1.381-.496 2.898-1.389 3.82-1.53 1.59-3.041 2.706-5 3.486-.857.34-2.196.659-3.172.57-.302-.026-.615-.106-.91-.129-.148-.013-.7-.154-.757-.199-.073-.053-.166-.104-.186-.085-.131.14-.27.484-.416.733a1.432 1.432 0 0 1-.315.37c-.333.248-.614.26-.938-.028-.45-.402-.71-1.03-.73-1.64-.01-.266.034-.557-.013-.785-.083-.377-.457-.765-.657-1.128-.236-.429-.427-1.17-.45-1.65-.083-1.496.695-2.873 1.705-3.96 1.016-1.1 2.345-2.014 3.792-2.634.939-.403 2.18-.717 3.351-.702zm-2.5 3.234s-.498.052-.78.111c-.67.133-1.652.796-2.144 1.224-.81.703-1.7 1.848-1.3 2.863.061.146.152.338.152.338s.424-.646.78-1.137c.649-.893 1.822-2.132 2.704-2.899.272-.233.589-.5.589-.5zm5.208.29c-.203.005-.423.061-.735.154a4.1 4.1 0 0 0-1.082.466c-1.258.741-3.037 2.326-4.004 3.591-.224.297-.45.63-.625.858-.114.14-.2.27-.19.306.039.145 1.359.13 1.86.094a8.45 8.45 0 0 0 3.595-1.09c1.094-.621 2.703-1.833 2.54-3.26a1.205 1.205 0 0 0-.725-.973c-.245-.108-.432-.152-.634-.146zm-6.366 10.957c.025 0 .05.003.078.009.059.01.152.038.23.066.687.266.969.912 1.138 1.618.392 1.645.56 5.28.624 6.706.048 1.066.074 2.12.118 3.175.037.894.107 2.084-.075 2.923-.067.302-.265.649-.55.83-.327.212-1.068.228-1.475.143-1.005-.211-1.332-.867-1.474-1.875-.341-2.407-.178-7.13.024-9.123.065-.655.31-2.764.65-3.647.107-.282.33-.828.712-.825zM66.862 53c1.958-.011 4.155.245 5.677 1.06.342.184.518.356.444.725-.143.692-.662 1.137-1.284 1.333-.655.21-2.011.291-2.606.328-2.67.152-5.895.072-8.435.772-.2.058-.543.148-.656.275-.398.435.739.559.983.612.072.015.087.018.162.025l5.617.671c.075.007.093.01.162.02 1.218.167 2.412.388 3.325.8.848.38 1.346.856 1.8 1.708.69 1.291.735 3.097.112 4.466-.468 1.017-1.49 1.871-2.422 2.325-.972.474-1.924.698-3.02.824-1.911.211-3.982-.186-5.706-1.027-1.02-.502-2.264-1.366-2.893-2.48-.462-.818-.448-1.878.116-2.653.894-1.235 2.81-1.507 4.257-1.455 1.102.04 3.083.386 4.131.76.292.105 1.36.526 1.546.715.13.136.217.33.158.512-.241.736-2.015 1.125-2.527 1.202-1.375.211-2.086-.31-3.647-.932-.388-.153-.904-.322-1.3-.36-.708-.067-1.564.13-1.697.912-.07.403.398.778.755.934a5.666 5.666 0 0 0 2.344.508c2.432.037 5.167-.366 7.159-1.788.275-.195.54-.483.545-.845 0-.047-.066-.436-.19-.476-.019-.009-.038 0-.053-.003-.046-.013-.122-.14-.187-.223-.143-.176-.72-.427-.834-.475-1.34-.564-3.819-.838-5.098-.944-1.339-.116-3.446-.295-3.953-.37-.52-.073-1.086-.177-1.54-.383-.45-.206-.894-.667-1.027-1.177-.233-.921.067-2.053.574-2.79 1.33-1.93 4.445-2.66 6.774-2.951.705-.089 1.545-.15 2.434-.155zm14.345-2a.936.936 0 0 1 .277.062c1.05.383 2.441 2.742 2.847 3.56.138.277.684 1.684.807 2.079.435 1.35.699 2.632.82 4.104.115 1.432.018 3.517-.567 4.928-.214.518-.655 1.217-1.021 1.569-.575.551-1.72.982-2.51.515-.864-.506-2.283-3.05-2.524-3.485-.824-1.488-2.241-4.398-2.46-4.725a.4.4 0 0 0-.22-.175c-.084-.025-.117.154-.139.27-.14.848-.238 4.811-.24 4.922-.023.666-.054 2.303-.24 3.108-.122.526-.245.958-.713 1.18-.331.154-.584.09-.986-.065-1.033-.392-1.267-2.117-1.315-2.99-.163-2.84.562-6.794 1.484-9.457.263-.758.642-1.996 1.462-1.926.564.051.966.501 1.283.964.808 1.18 1.872 2.78 2.577 3.895.788 1.248 1.545 2.506 2.29 3.645.09.137.177.271.277.356.135.113.256.119.311.014.026-.04-.023-1.475-.058-1.763-.057-.458-.084-.83-.134-1.224-.137-1.149-.49-2.764-.768-3.857-.305-1.222-.678-2.497-.957-3.68-.09-.384-.173-.772-.17-1.138.002-.43.22-.704.587-.685zm25.468 3c.465.023.54.574.47 1.033-.233 1.514-1.282 3.057-1.999 4.334-.806 1.427-.981 2.015-1.376 3.324-.063.204-.22 1.16-.214 1.283.016.351.092.795.092.795s1.311-1.866 2.177-3.017c.473-.633.813-1.05 1.207-1.501.4-.458 1.937-2.081 2.38-2.51.93-.901 1.342-1.276 2.348-1.807.798-.418 1.514-.523 2.291 0 1.233.822 1.77 2.561 1.91 3.972.161 1.686-.178 3.582-.91 5.026-.868 1.722-2.054 2.963-3.666 4.048-1.648 1.11-3.583 1.864-5.48 1.82-.256-.007-.555-.022-.555-.022s-.306.912-.53 1.627c-.387 1.234-1.239 4.557-1.436 5.59-.297 1.533-1.142 5.549-1.185 5.635-.06.116-.099.153-.241.246-.348.208-.488.139-.91-.09-.547-.292-1.027-.59-1.438-1.141-.825-1.088-.627-3.136-.466-4.337.566-4.202 1.138-6.05 2.712-10.233.026-.072.026-.088-.006-.151-.49-1.062-.755-2.344-.755-3.38.004-3.279 1.859-6.522 3.939-9.128.157-.198 1.177-1.44 1.64-1.416zm6.558 4.67a.322.322 0 0 0-.215.081c-.965.822-2.213 2.496-2.808 3.366-.795 1.152-1.544 2.472-2.26 3.495-.154.23-.615 1.052-.6 1.08.033.058.498.04.975-.042 1.017-.174 2.4-.9 3.138-1.498 1.126-.916 1.91-2.175 2.28-3.647.163-.67.247-2.072-.22-2.697a.381.381 0 0 0-.29-.139z" fill="#36383B" fill-rule="nonzero"></path></svg> 