<?xml version="1.0" encoding="UTF-8"?> <svg xmlns="http://www.w3.org/2000/svg" width="120" height="120"><path d="M95.04 56.15H115l-.006-2.15H88.386l-7.931 13h18.523l1.33-2.15H89.717l2.023-3.275h10.592l1.278-2.15H93.07l1.97-3.275zM41.516 54H26.19l-6.605 10.85H5L5.007 67h29.428c1.956 0 2.59-.922 3.013-1.638l1.585-2.661c.423-.717.423-1.536-.423-1.996.848 0 2.008-.563 2.695-1.74l1.586-2.61c.793-1.28-.159-2.355-1.374-2.355zm-7.874 8.752l-.793 1.228c-.211.41-.581.87-1.48.87h-3.91l2.01-3.275h3.803c.687 0 .687.614.37 1.177zm3.329-5.425l-.793 1.228c-.211.41-.581.87-1.48.87h-3.91l2.008-3.275h3.805c.687 0 .687.614.37 1.177zM62.227 54H50.22c-1.647 0-3.772 0-5.047 2.15l-5.313 8.7c-.744 1.177-.106 2.15 1.275 2.15h13.972c1.435 0 2.338-.41 3.453-2.15l5.313-8.7c.69-1.126-.372-2.15-1.646-2.15zm-6.748 3.327l-3.984 6.5c-.531.921-1.01 1.023-2.232 1.023-1.222 0-1.54-.41-1.168-1.024l4.037-6.5c.585-.972 1.275-1.176 2.285-1.176 1.01 0 1.593.307 1.062 1.177zm24.495 2.098c1.641 0 1.907 1.177 1.376 2.15l-2.382 3.839C78.332 66.437 77.22 67 75.949 67h-13.98c-1.376 0-1.853-.87-1.27-1.843l.953-1.535h7.943c-.423.614-.477 1.228.477 1.228 1.112 0 1.589-.41 1.96-1.024l1.323-2.251h-8.102c-1.695 0-1.747-.973-1.06-2.15l2.49-4.094C67.423 54.154 68.43 54 69.7 54h14.086c1.43 0 1.43 1.126.848 2.15l-.795 1.381h-7.996c.423-.767.158-1.381-.636-1.381s-1.271.307-1.8 1.177l-1.271 2.098h7.837z" fill="#252628" fill-rule="nonzero"></path></svg> 