<?xml version="1.0" encoding="UTF-8"?> <svg xmlns="http://www.w3.org/2000/svg" width="120" height="120"><path d="M41.39 46c-4.054-.006-6.74 2.261-7.118 5.65-.088.784-.179 1.567-.272 2.35h52.76l.176-1.489c.396-3.414-.972-6.51-5.947-6.51 0 0-37.461.002-39.599-.001zM8.932 46L8 54h24.072L33 46H8.931zm80.986 0L89 54h25.775s.03-.29.145-1.231c.627-5.251-2.546-6.769-5.61-6.769H89.917zm-1.892 11L86 74l8.972-.003L97 57.004 88.026 57zm17.004 0L103 74l8.972-.003L114 57.004 105.03 57zM8.029 57L6 74h23.975l.883-7.375-15.012-.002.38-3.18h15.006L32 57H8.029zm25.959 0c-.646 4.436 1.47 6.442 4.47 6.442l11.913-.005-.372 3.185-17.136.001L32 73.997s18.656.007 19.412 0c.624-.047 4.988-.172 6.474-3.918.482-1.216.908-5.576 1.027-6.49.686-5.317-2.821-6.584-5.584-6.584L33.988 57zm28.038 0L60 74h8.967l1.263-10.557h11.264c3.194 0 4.911-1.77 5.23-4.145.102-.765.194-1.53.276-2.298H62.026z" fill="#36383B" fill-rule="nonzero"></path></svg> 