<?xml version="1.0" encoding="UTF-8"?> <svg xmlns="http://www.w3.org/2000/svg" width="120" height="120"><g fill="#252628" fill-rule="evenodd"><path d="M113.404 55.255l-.37 3.698h-1.48c-2.465 0-3.698 1.973-3.698 3.822v8.506h-4.314V55.255h4.068l.123 1.973c.863-1.356 2.342-1.973 4.191-1.973h1.48M83.448 71.281h-4.316v-8.506c0-1.726-.123-3.945-2.712-3.945-2.342 0-3.328 1.726-3.328 3.698v8.753h-4.315V55.255h4.068v2.096c.863-1.356 2.466-2.466 4.808-2.466 4.439 0 5.795 3.082 5.795 6.287v10.109M66.928 67.46l-.246 3.698c-1.11.247-1.973.37-3.083.37-4.068 0-5.3-1.85-5.3-5.548V50.817h4.314v4.438h4.315l-.246 3.698h-4.069v6.657c0 1.48.37 2.342 1.973 2.342.617 0 1.356-.123 2.342-.493M56.943 55.255l-.37 3.698H55.34c-2.342 0-3.575 1.973-3.575 3.822v8.506h-4.314V55.255h4.068l.123 1.973c.863-1.356 2.342-1.973 4.191-1.973h1.11M27.972 69.432c-2.958 1.603-5.917 2.466-9.739 2.466-7.15-.247-12.328-4.685-12.328-12.205 0-7.52 5.178-12.328 12.328-12.451 3.575 0 6.78.863 9.37 3.082l-3.083 3.082c-1.602-1.233-3.821-2.096-6.533-1.973-4.562.247-7.274 3.452-7.274 8.014-.123 4.807 2.836 8.136 7.52 8.259 2.22.123 3.822-.247 5.178-.863v-4.93h-4.93l.369-4.069h9.122v11.588M101.57 64.747H89.734c.37 2.096 1.972 3.329 3.944 3.329 1.973.123 3.082-.493 4.438-1.973l2.836 2.22c-1.972 2.465-4.438 3.328-7.15 3.328-4.808 0-8.383-3.329-8.383-8.383 0-5.054 3.575-8.383 8.26-8.383 5.054 0 7.89 3.082 7.89 8.63v1.232zm-4.316-3.328c-.123-1.972-1.602-3.329-3.698-3.205-2.096.123-3.575 1.48-3.821 3.205h7.52zM44.738 60.803V71.28h-3.822l-.123-1.603c-1.11 1.48-3.082 1.973-5.054 1.973-2.835 0-5.671-1.48-5.671-4.808-.123-5.3 5.917-5.67 9.739-5.67h.74v-.247c0-1.726-1.11-2.712-3.329-2.712-1.602 0-3.082.616-4.314 1.726l-2.466-2.59c2.22-1.848 4.561-2.465 7.15-2.465 4.931 0 7.15 2.343 7.15 5.918zm-4.191 3.451h-.617c-1.972 0-5.67.123-5.547 2.22 0 3.08 6.164 2.095 6.164-1.48v-.74z"></path></g></svg> 