<?xml version="1.0" encoding="UTF-8"?> <svg xmlns="http://www.w3.org/2000/svg" width="120" height="120"><path d="M5 70V51h8.363c3.563 0 5.396 2.309 5.396 4.837 0 2.36-1.463 3.986-3.233 4.36 2.024.31 3.602 2.283 3.602 4.643 0 2.877-1.858 5.16-5.447 5.16H5zm9.686-13.44c0-1.174-.84-2-2.189-2h-3.5v3.986h3.5c1.35 0 2.19-.761 2.19-1.987zm.37 7.713c0-1.2-.84-2.167-2.394-2.167H8.997v4.334h3.678c1.477 0 2.38-.8 2.38-2.167zm6.09-.09V56h3.642v8.068c0 1.623.994 2.8 2.931 2.8 1.911 0 2.919-1.177 2.919-2.8V56h3.628v8.17c0 3.426-2.079 5.83-6.534 5.83s-6.585-2.43-6.585-5.817zM35.277 70v-2.755l6.123-8.03h-6.124V56h10.987v2.637l-6.238 8.148h6.352V70h-11.1zm12.11 0v-2.755l6.123-8.03h-6.124V56h10.987v2.637l-6.238 8.148h6.352V70h-11.1zm13.119 0V51h13.119v3.56h-9.089v3.986h6.842v3.56h-6.842V70h-4.03zm11.1-7.013c0-3.862 2.993-6.987 7.182-6.987 4.163 0 6.947 2.987 6.947 7.313v.825H75.417c.26 1.624 1.64 2.987 3.994 2.987 1.184 0 2.784-.475 3.682-1.3l1.64 2.325C83.352 69.362 81.167 70 79.02 70c-4.228 0-7.415-2.737-7.415-7.013zm7.182-4.112c-2.264 0-3.253 1.513-3.396 2.837h6.843c-.117-1.275-1.04-2.837-3.447-2.837zm7.956 4.112c0-3.862 2.992-6.987 7.181-6.987 4.164 0 6.948 2.987 6.948 7.313v.825H90.555c.26 1.624 1.64 2.987 3.994 2.987 1.184 0 2.784-.475 3.682-1.3l1.639 2.325C98.49 69.362 96.305 70 94.159 70c-4.229 0-7.416-2.737-7.416-7.013zm7.181-4.112c-2.263 0-3.252 1.513-3.395 2.837h6.843c-.117-1.275-1.04-2.837-3.448-2.837zM101.881 70V56h5.585c4.378 0 7.534 2.64 7.534 6.993 0 4.34-3.143 7.007-7.508 7.007h-5.611zm9.573-7.007c0-2.17-1.299-3.973-3.845-3.973h-2.26v7.96h2.26c2.43 0 3.845-1.908 3.845-3.987z" fill="#252628" fill-rule="nonzero"></path></svg> 