<?xml version="1.0" encoding="UTF-8"?> <svg xmlns="http://www.w3.org/2000/svg" xmlns:xlink="http://www.w3.org/1999/xlink" width="24px" height="22px" viewBox="0 0 24 22"><!-- Generator: Sketch 61 (89581) - https://sketch.com --><title>small / developer / default</title><desc>Created with Sketch.</desc><g id="Review" stroke="none" stroke-width="1" fill="none" fill-rule="evenodd"><g id="Navigation-Icons" transform="translate(-103.000000, -89.000000)" fill="currentColor"><g id="small-/-developer-/-default" transform="translate(100.000000, 85.000000)"><g id="programming-browser" transform="translate(3.000000, 4.000000)"><path d="M2.25,21.5 C1.009,21.5 0,20.491 0,19.25 L0,2.865 C0.004,1.564 1.064,0.504 2.363,0.5 L21.643,0.5 C22.939,0.504 23.996,1.56 24,2.855 L24,19.135 C23.996,20.436 22.936,21.496 21.637,21.5 C21.637,21.5 21.636,21.5 21.636,21.5 L2.25,21.5 Z M1.5,19.25 C1.5,19.664 1.836,20 2.25,20 L21.635,20 C22.11,19.999 22.499,19.61 22.5,19.133 L22.5,6.5 L1.5,6.5 L1.5,19.25 Z M22.5,5 L22.5,2.857 C22.499,2.386 22.113,2.001 21.641,2 L2.365,2 C1.89,2.002 1.501,2.391 1.5,2.867 L1.5,5 L22.5,5 Z" id="Shape" fill-rule="nonzero"></path><path d="M16.5,17 C16.3,17 16.111,16.922 15.97,16.78 C15.678,16.488 15.678,16.012 15.97,15.719 L18.44,13.249 L15.97,10.779 C15.828,10.638 15.75,10.449 15.75,10.249 C15.75,10.049 15.828,9.86 15.97,9.719 C16.112,9.578 16.3,9.499 16.5,9.499 C16.7,9.499 16.889,9.577 17.03,9.719 L20.03,12.719 C20.322,13.011 20.322,13.487 20.03,13.78 L17.03,16.78 C16.889,16.922 16.7,17 16.5,17 Z" id="Path" fill-rule="nonzero"></path><path d="M7.5,17 C7.3,17 7.111,16.922 6.97,16.78 L3.97,13.78 C3.678,13.488 3.678,13.012 3.97,12.719 L6.97,9.719 C7.111,9.578 7.3,9.5 7.5,9.5 C7.7,9.5 7.889,9.578 8.03,9.72 C8.172,9.861 8.25,10.05 8.25,10.25 C8.25,10.45 8.172,10.639 8.03,10.78 L5.56,13.25 L8.03,15.72 C8.322,16.012 8.322,16.488 8.03,16.781 C7.889,16.922 7.7,17 7.5,17 Z" id="Path" fill-rule="nonzero"></path><path d="M10.5,17 C10.385,17 10.269,16.973 10.165,16.921 C9.795,16.736 9.645,16.285 9.829,15.915 L12.829,9.915 C12.957,9.659 13.214,9.501 13.5,9.501 C13.615,9.501 13.731,9.528 13.834,9.58 C14.204,9.765 14.355,10.217 14.17,10.586 L11.17,16.586 C11.043,16.841 10.786,17 10.5,17 Z" id="Path" fill-rule="nonzero"></path></g></g></g></g></svg> 